<?xml version="1.0" encoding="UTF-8"?>
<svg xmlns="http://www.w3.org/2000/svg" viewBox="0 0 600 600">
  <defs>
    <style>
      .cls-1 {
        fill: #ff6900;
      }

      .cls-2 {
        fill: none;
        stroke: #fff7ed;
        stroke-linejoin: round;
        stroke-width: 24px;
      }
    </style>
  </defs>
  <g id="IconBack">
    <rect class="cls-1" x="10" y="10" width="580" height="580" rx="140" ry="140"/>
  </g>
  <g id="Main">
    <path class="cls-2" d="M507.96,167.62c-21.06.99-38.42,17.66-40.22,38.67-.57,6.68.42,13.07,2.63,18.85l-70.22,47.63-52.15-71.77-.13.06c-3.28-6.55-10.04-11.06-17.87-11.06-6.16,0-11.66,2.79-15.33,7.16L60.06,420h-.06v60h60v-.06l201.47-230.2,26.5,85.98c.63,4.7,2.04,9.16,4.08,13.25h0s0,0,0,0c6.97,13.9,21.34,23.45,37.95,23.45,17.48,0,32.48-10.57,38.98-25.67l65.88-97.12c5.78,2.21,12.17,3.21,18.85,2.63,21-1.8,37.68-19.17,38.67-40.22,1.17-25.04-19.38-45.6-44.42-44.42Z"/>
  </g>
</svg>